<?xml version="1.0" encoding="UTF-8" standalone="no"?>
<!-- Created with Inkscape (http://www.inkscape.org/) -->

<svg
   width="80"
   height="80"
   viewBox="0 0 21.166666 21.166667"
   version="1.1"
   id="svg5"
   sodipodi:docname="icon.svg"
   inkscape:version="1.1.2 (1:1.1+202202050950+0a00cf5339)"
   xmlns:inkscape="http://www.inkscape.org/namespaces/inkscape"
   xmlns:sodipodi="http://sodipodi.sourceforge.net/DTD/sodipodi-0.dtd"
   xmlns="http://www.w3.org/2000/svg"
   xmlns:svg="http://www.w3.org/2000/svg">
  <sodipodi:namedview
     id="namedview7"
     pagecolor="#ffffff"
     bordercolor="#999999"
     borderopacity="1"
     inkscape:pageshadow="0"
     inkscape:pageopacity="0"
     inkscape:pagecheckerboard="0"
     inkscape:document-units="mm"
     showgrid="false"
     units="px"
     width="80px"
     inkscape:zoom="3.9962644"
     inkscape:cx="12.386568"
     inkscape:cy="41.038326"
     inkscape:window-width="1920"
     inkscape:window-height="965"
     inkscape:window-x="0"
     inkscape:window-y="27"
     inkscape:window-maximized="1"
     inkscape:current-layer="layer1" />
  <defs
     id="defs2" />
  <g
     inkscape:label="Слой 1"
     inkscape:groupmode="layer"
     id="layer1">
    <path
       style="fill:#000000;stroke-width:0.384298"
       d="M 7.9319385,20.935741 C 4.2645745,20.041367 1.2820755,17.862054 0.35680115,15.400589 -0.39261683,13.406946 0.06171139,10.890988 1.5016007,9.0609638 2.8415668,7.3579367 5.9864614,5.7190266 8.485585,5.4213752 L 10.161257,5.2217988 V 2.6108994 C 10.161257,1.0914072 10.347395,0 10.606544,0 c 0.259228,0 0.445287,1.0932332 0.445287,2.6163775 v 2.6163774 l 1.65444,0.231175 c 8.137023,1.1369865 11.265846,8.6172191 5.530642,13.2223781 -2.371729,1.904414 -7.304508,2.98117 -10.3049745,2.249433 z m 6.9753065,-1.143299 c 3.199354,-1.232274 5.469015,-3.941984 5.485837,-6.549444 0.01388,-2.151273 -1.908496,-4.8391022 -4.370128,-6.110233 -1.739896,-0.8984422 -2.271507,-0.9970357 -5.375965,-0.9970357 -3.0154754,0 -3.6766271,0.114102 -5.3012862,0.9148996 C 2.6513821,8.3786647 1.2261143,10.160954 0.93298927,12.5687 0.37642742,17.14034 5.2352275,20.812222 11.335694,20.430208 c 1.25821,-0.07879 2.865408,-0.365784 3.571551,-0.637766 z m -3.784271,-5.588219 c -3.3758742,-2.99913 -3.924121,-3.144554 -5.9038656,-1.566029 -0.7105297,0.566532 -1.2918713,0.855215 -1.2918713,0.641518 0,-1.392969 2.8601906,-2.638107 4.5305127,-1.972287 1.1030583,0.4397 2.5940812,1.536156 2.5940812,1.907613 0,0.522889 1.623833,1.378049 2.616725,1.378049 0.543453,0 1.479476,-0.394912 2.080052,-0.877583 0.790919,-0.635646 1.091956,-0.733717 1.091956,-0.355734 0,0.726213 -2.12277,1.896639 -3.439882,1.896639 -0.682297,0 -1.538613,-0.395575 -2.277708,-1.052186 z"
       id="path4297" />
  </g>
</svg>
