<?xml version="1.0" encoding="UTF-8" standalone="no"?>
<!-- Created with Inkscape (http://www.inkscape.org/) -->

<svg
   width="80"
   height="80"
   viewBox="0 0 21.166666 21.166667"
   version="1.1"
   id="svg5"
   sodipodi:docname="icon.svg"
   inkscape:version="1.1.2 (1:1.1+202202050950+0a00cf5339)"
   xmlns:inkscape="http://www.inkscape.org/namespaces/inkscape"
   xmlns:sodipodi="http://sodipodi.sourceforge.net/DTD/sodipodi-0.dtd"
   xmlns="http://www.w3.org/2000/svg"
   xmlns:svg="http://www.w3.org/2000/svg">
  <sodipodi:namedview
     id="namedview7"
     pagecolor="#ffffff"
     bordercolor="#999999"
     borderopacity="1"
     inkscape:pageshadow="0"
     inkscape:pageopacity="0"
     inkscape:pagecheckerboard="0"
     inkscape:document-units="mm"
     showgrid="false"
     units="px"
     width="80px"
     inkscape:zoom="3.9962644"
     inkscape:cx="12.386568"
     inkscape:cy="41.038326"
     inkscape:window-width="1920"
     inkscape:window-height="965"
     inkscape:window-x="0"
     inkscape:window-y="27"
     inkscape:window-maximized="1"
     inkscape:current-layer="layer1" />
  <defs
     id="defs2" />
  <g
     inkscape:label="Слой 1"
     inkscape:groupmode="layer"
     id="layer1">
    <path
       style="fill:#000000;stroke-width:0.381322"
       d="m 7.9319382,20.939303 c -3.667364,-0.880578 -6.649863,-3.026268 -7.57513698,-5.44976 -0.749418,-1.962885 -0.29509,-4.440029 1.14479898,-6.2418209 1.339966,-1.6767539 4.484861,-3.2903801 6.983985,-3.5834396 L 10.161256,5.4677851 V 2.7338924 C 10.161256,1.1289938 10.345143,0 10.606543,0 c 0.261471,0 0.445288,1.1307916 0.445288,2.739286 v 2.7392861 l 1.654439,0.2276087 c 8.137024,1.1194458 11.265847,8.4842772 5.530643,13.0183922 -2.37173,1.875033 -7.304509,2.935179 -10.3049748,2.21473 z m 6.9753078,-1.12566 c 3.199353,-1.213265 5.469015,-3.881171 5.485837,-6.448404 0.01388,-2.118085 -1.908497,-4.7644481 -4.370129,-6.0159687 -1.739895,-0.8845817 -2.271507,-0.9816542 -5.375966,-0.9816542 -3.0154738,0 -3.6766258,0.1123417 -5.3012858,0.9007851 -2.69432,1.3075479 -4.119588,3.0623408 -4.41271298,5.4329418 -0.556562,4.501111 4.30223798,8.116346 10.40270378,7.740226 1.258209,-0.07757 2.865408,-0.360141 3.571553,-0.627926 z M 6.5150805,13.039065 c 0,-3.5238703 0.02428,-3.6120779 0.966646,-3.5103524 0.745452,0.080471 1.219743,0.6120974 2.0727148,2.3232874 0.6083367,1.220417 1.2442997,2.102087 1.4132487,1.959266 0.16895,-0.14282 0.763504,-1.178079 1.321231,-2.300575 0.752782,-1.5150697 1.229515,-2.040903 1.850332,-2.040903 0.767501,0 0.836283,0.2954274 0.836283,3.591989 0,2.176963 -0.175416,3.591988 -0.445287,3.591988 -0.264474,0 -0.640192,-1.092983 -0.640192,-2.870837 0,-1.646327 0.07413,-3.02724 -0.07349,-2.918987 -0.147618,0.108252 -0.725976,1.124622 -1.285244,2.258598 -0.559266,1.133977 -1.309296,2.104923 -1.666733,2.157659 -0.438764,0.06473 -0.780572,-0.777279 -1.7971925,-2.122539 l -1.147306,-2.218421 -0.03458,2.857264 c -0.02796,2.310824 -0.162313,2.857263 -0.702506,2.857263 -0.55349,0 -0.66793,-0.61933 -0.66793,-3.6147 z"
       id="path4868"
       sodipodi:nodetypes="sssscssscssssssssssscsssssssssscsccscc" />
  </g>
</svg>
