<?xml version="1.0" encoding="UTF-8" standalone="no"?>
<!-- Created with Inkscape (http://www.inkscape.org/) -->

<svg
   width="80"
   height="80"
   viewBox="0 0 21.166666 21.166667"
   version="1.1"
   id="svg5"
   sodipodi:docname="icon.svg"
   inkscape:version="1.1.2 (1:1.1+202202050950+0a00cf5339)"
   xmlns:inkscape="http://www.inkscape.org/namespaces/inkscape"
   xmlns:sodipodi="http://sodipodi.sourceforge.net/DTD/sodipodi-0.dtd"
   xmlns="http://www.w3.org/2000/svg"
   xmlns:svg="http://www.w3.org/2000/svg">
  <sodipodi:namedview
     id="namedview7"
     pagecolor="#ffffff"
     bordercolor="#999999"
     borderopacity="1"
     inkscape:pageshadow="0"
     inkscape:pageopacity="0"
     inkscape:pagecheckerboard="0"
     inkscape:document-units="mm"
     showgrid="false"
     units="px"
     width="80px"
     inkscape:zoom="3.9962644"
     inkscape:cx="29.152226"
     inkscape:cy="32.780614"
     inkscape:window-width="1920"
     inkscape:window-height="965"
     inkscape:window-x="0"
     inkscape:window-y="27"
     inkscape:window-maximized="1"
     inkscape:current-layer="layer1" />
  <defs
     id="defs2" />
  <g
     inkscape:label="Слой 1"
     inkscape:groupmode="layer"
     id="layer1">
    <path
       style="fill:#000000;stroke-width:0.175283"
       d="M 12.876227,20.977976 C 12.460452,20.848349 11.755963,20.538459 11.310696,20.289334 L 10.501119,19.836379 9.6448502,20.24599 C 6.9107132,21.55392 4.126488,21.130602 1.9773708,19.080212 1.164009,18.304217 0.78394136,17.771418 0.44682761,16.934621 -0.77019018,13.91369 0.57598209,10.483009 3.5476855,9.0321744 3.9211673,8.8498341 4.1866492,8.6387112 4.1376454,8.5630128 3.881302,8.1670266 3.7320183,6.2929159 3.87824,5.3064299 4.2905378,2.5248579 6.7836878,0.33853456 9.8990774,0.02656468 12.4241,-0.226287 15.227385,1.3504909 16.44329,3.707521 c 0.348795,0.6761375 0.417956,1.0794387 0.417956,2.437247 0,0.8948727 -0.06424,1.8657022 -0.142756,2.1573982 -0.137414,0.5105064 -0.112422,0.5414182 0.667681,0.8258482 1.136877,0.4145129 2.444313,1.6003316 3.16649,2.8719456 0.588195,1.035693 0.614006,1.15674 0.614006,2.879451 0,1.548744 -0.05911,1.911921 -0.425923,2.616974 -1.137812,2.186992 -3.292573,3.564087 -5.729874,3.661932 -0.841027,0.03376 -1.673498,-0.03657 -2.134643,-0.180341 z m 4.116574,-0.922694 c 1.106533,-0.467301 2.466533,-1.697765 3.012979,-2.726001 0.329488,-0.619988 0.45345,-1.167135 0.502858,-2.219513 0.05751,-1.224915 0.0065,-1.522273 -0.414445,-2.417858 -0.264008,-0.561644 -0.816881,-1.33221 -1.228607,-1.712366 -0.753553,-0.695774 -1.97626,-1.4094259 -2.414784,-1.4094259 -0.130001,0 -0.670045,0.4472109 -1.200099,0.9938019 -0.530054,0.546591 -1.296377,1.143887 -1.702939,1.327323 -0.64446,0.290774 -0.725135,0.3884 -0.62944,0.76169 0.252873,0.986409 0.297294,2.676406 0.09323,3.546955 -0.132262,0.56424 -0.527303,1.359399 -1.009251,2.031473 -0.435559,0.607383 -0.791924,1.140552 -0.791924,1.184822 0,0.12758 1.470351,0.814969 2.063015,0.964462 0.896575,0.226148 2.809773,0.05879 3.719406,-0.325363 z M 9.0422595,19.740496 c 0.5511379,-0.246171 0.9013931,-0.48359 0.7783441,-0.5276 -0.123049,-0.044 -0.5017828,-0.555354 -0.8416319,-1.136328 -0.9497195,-1.623547 -1.1308109,-3.419447 -0.5403506,-5.35869 0.088643,-0.291129 0.015669,-0.38597 -0.3676539,-0.47782 C 7.2898508,12.052889 6.3222023,11.386013 5.3342275,10.353971 L 4.4056901,9.3840183 3.8408837,9.6628622 C 2.2343218,10.45602 0.91115673,12.350948 0.68372336,14.184287 c -0.17728703,1.429116 0.49538924,3.121387 1.72455574,4.338518 1.831292,1.81336 4.2899811,2.264662 6.6339804,1.217691 z m 2.2504145,-1.735453 c 0.343176,-0.447436 0.747595,-1.154799 0.898706,-1.571917 0.312341,-0.862165 0.357089,-2.37711 0.09665,-3.272113 l -0.176096,-0.605158 -1.302892,0.05925 c -0.71659,0.03259 -1.3940705,0.08699 -1.5055117,0.120877 -0.3604559,0.10962 -0.6095275,2.055307 -0.4009784,3.132355 0.245405,1.267392 1.1584741,2.95022 1.6007301,2.95022 0.09099,0 0.446214,-0.366085 0.789391,-0.81352 z m 0.276491,-6.214473 c 0,-0.239864 -0.546156,-1.02158 -0.713739,-1.02158 -0.186279,0 -1.080186,0.869721 -1.080186,1.050961 0,0.08135 0.403633,0.147913 0.896962,0.147913 0.498704,0 0.896963,-0.07872 0.896963,-0.177294 z M 9.5022575,10.997149 10.202215,10.197701 9.7807679,9.9267267 C 8.8779001,9.3462163 7.8741466,9.0753253 6.5910219,9.0658849 c -0.7932592,-0.00583 -1.3005956,0.06042 -1.3005956,0.1698535 0,0.4891808 2.7401324,2.5418676 3.4153181,2.5584816 0.053102,0.0013 0.4115364,-0.357376 0.7965131,-0.797071 z m 5.0961075,-0.762725 c 0.405924,-0.3953485 0.738044,-0.7836214 0.738044,-0.8628281 0,-0.4338177 -3.041947,0.2000033 -3.919797,0.8167291 -0.03457,0.02429 0.197945,0.353994 0.516702,0.732679 l 0.579558,0.688519 0.673725,-0.328141 c 0.370548,-0.180478 1.005843,-0.651609 1.411768,-1.046958 z M 11.424367,9.4075483 c 0.837615,-0.4713256 2.601291,-0.8851911 3.553257,-0.8338109 0.793909,0.042852 0.811233,0.032327 1.047021,-0.63608 0.355216,-1.0069602 0.192896,-3.0985687 -0.3134,-4.038378 C 14.079004,0.86944356 10.29471,-0.17180289 7.2484909,1.5707576 6.1642157,2.1910064 5.0424009,3.5755887 4.7306185,4.6783985 4.5042243,5.479184 4.4934616,7.1989561 4.7102906,7.9265193 l 0.1481899,0.4972449 1.445727,-0.036483 c 1.5607469,-0.039389 3.0357876,0.3302669 3.9680345,0.9944163 0.596133,0.4246944 0.449182,0.4213969 1.152124,0.025852 z"
       id="path21"
       sodipodi:nodetypes="sscssssssssssssssssssscsssssssssssscsssscsssscsscccssccsssssscscscssssscsssssssssccsss" />
  </g>
</svg>
